<?xml version="1.0" encoding="UTF-8" standalone="no"?>
<svg
   xmlns:dc="http://purl.org/dc/elements/1.1/"
   xmlns:cc="http://creativecommons.org/ns#"
   xmlns:rdf="http://www.w3.org/1999/02/22-rdf-syntax-ns#"
   xmlns:svg="http://www.w3.org/2000/svg"
   xmlns="http://www.w3.org/2000/svg"
   xmlns:sodipodi="http://sodipodi.sourceforge.net/DTD/sodipodi-0.dtd"
   xmlns:inkscape="http://www.inkscape.org/namespaces/inkscape"
   sodipodi:docname="location.svg"
   inkscape:version="1.0 (4035a4fb49, 2020-05-01)"
   id="svg1655"
   version="1.1"
   viewBox="0 0 50.9744 63.717999"
   height="63.717999mm"
   width="50.9744mm">
  <defs
     id="defs1649" />
  <sodipodi:namedview
     inkscape:window-maximized="1"
     inkscape:window-y="317"
     inkscape:window-x="3064"
     inkscape:window-height="1017"
     inkscape:window-width="1920"
     fit-margin-bottom="0"
     fit-margin-right="0"
     fit-margin-left="0"
     fit-margin-top="0"
     showgrid="false"
     inkscape:document-rotation="0"
     inkscape:current-layer="layer1"
     inkscape:document-units="mm"
     inkscape:cy="158.92449"
     inkscape:cx="250.61595"
     inkscape:zoom="1.5881503"
     inkscape:pageshadow="2"
     inkscape:pageopacity="0.0"
     borderopacity="1.0"
     bordercolor="#666666"
     pagecolor="#ffffff"
     id="base" />
  <metadata
     id="metadata1652">
    <rdf:RDF>
      <cc:Work
         rdf:about="">
        <dc:format>image/svg+xml</dc:format>
        <dc:type
           rdf:resource="http://purl.org/dc/dcmitype/StillImage" />
        <dc:title></dc:title>
      </cc:Work>
    </rdf:RDF>
  </metadata>
  <g
     transform="translate(-77.23854,-106.42059)"
     id="layer1"
     inkscape:groupmode="layer"
     inkscape:label="Layer 1">
    <path
       style="stroke-width:3.1859"
       d="m 165.12039,143.19778 h 76.4616 v 76.4616 h -76.4616 z"
       fill="none"
       id="path1622" />
    <path
       d="m 102.72574,138.27959 c -3.50449,0 -6.3718,-2.86731 -6.3718,-6.3718 0,-3.50449 2.86731,-6.3718 6.3718,-6.3718 3.50449,0 6.3718,2.86731 6.3718,6.3718 0,3.50449 -2.86731,6.3718 -6.3718,6.3718 z m 19.1154,-5.73462 c 0,-11.56482 -8.44264,-19.75258 -19.1154,-19.75258 -10.67277,0 -19.1154,8.18776 -19.1154,19.75258 0,7.455 6.2125,17.33129 19.1154,29.11912 12.90289,-11.78783 19.1154,-21.66412 19.1154,-29.11912 z m -19.1154,-26.12438 c 13.38078,0 25.4872,10.2586 25.4872,26.12438 0,10.57719 -8.50636,23.09777 -25.4872,37.59362 -16.98085,-14.49585 -25.4872,-27.01643 -25.4872,-37.59362 0,-15.86578 12.10642,-26.12438 25.4872,-26.12438 z"
       id="path1624"
       style="fill:#000000;stroke-width:3.1859" />
  </g>
</svg>
